<?xml version="1.0" encoding="UTF-8"?>
<svg version="1.1" xmlns="http://www.w3.org/2000/svg" width="204" height="192">
<path d="M0 0 C67.32 0 134.64 0 204 0 C204 63.36 204 126.72 204 192 C136.68 192 69.36 192 0 192 C0 128.64 0 65.28 0 0 Z " fill="#FEFEFE" transform="translate(0,0)"/>
<path d="M0 0 C5.98530459 4.73726751 11.49460682 11.08190596 14.66015625 18.10546875 C14.33015625 18.76546875 14.00015625 19.42546875 13.66015625 20.10546875 C12.67015625 19.44546875 11.68015625 18.78546875 10.66015625 18.10546875 C10.66015625 18.76546875 10.66015625 19.42546875 10.66015625 20.10546875 C7.5380035 20.5952182 4.76225758 20.79014307 1.66015625 20.10546875 C0.05041874 18.29282315 -0.87056185 16.42092612 -1.98046875 14.26953125 C-4.47454603 10.29907489 -8.33089646 8.3526067 -12.33984375 6.10546875 C-13.30470703 5.48285156 -13.30470703 5.48285156 -14.2890625 4.84765625 C-22.41861103 0.27977633 -33.5962136 0.83386904 -42.48046875 2.80078125 C-47.43585591 4.60964957 -51.19192736 7.26951148 -54.96484375 10.93359375 C-56.33984375 12.10546875 -56.33984375 12.10546875 -58.33984375 12.10546875 C-58.58734375 12.84796875 -58.83484375 13.59046875 -59.08984375 14.35546875 C-60.43131676 17.30670937 -61.94889901 18.95361849 -64.33984375 21.10546875 C-64.33984375 20.11546875 -64.33984375 19.12546875 -64.33984375 18.10546875 C-64.99984375 18.10546875 -65.65984375 18.10546875 -66.33984375 18.10546875 C-66.33984375 18.76546875 -66.33984375 19.42546875 -66.33984375 20.10546875 C-69.63984375 20.10546875 -72.93984375 20.10546875 -76.33984375 20.10546875 C-73.18402572 9.0436691 -65.23103386 0.63333207 -55.33984375 -4.89453125 C-35.93425014 -14.89768381 -17.72781375 -12.44917619 0 0 Z " fill="#D7D7D7" transform="translate(133.33984375,58.89453125)"/>
<path d="M0 0 C1.68319336 0.02707031 1.68319336 0.02707031 3.40039062 0.0546875 C6.16363447 0.10172144 8.92512698 0.16743683 11.6875 0.25 C10.61348892 3.16517292 9.90939824 5.02810176 7.6875 7.25 C4.78782243 7.55675232 1.96966822 7.76173371 -0.9375 7.875 C-1.73929688 7.91367188 -2.54109375 7.95234375 -3.3671875 7.9921875 C-5.34857556 8.08653931 -7.33050645 8.16936215 -9.3125 8.25 C-8.21550781 8.28738281 -7.11851563 8.32476562 -5.98828125 8.36328125 C-4.53382143 8.42896653 -3.07939584 8.49541299 -1.625 8.5625 C-0.5431543 8.59633789 -0.5431543 8.59633789 0.56054688 8.63085938 C5.43132735 8.87551045 9.08291979 9.64541979 12.6875 13.25 C13.15377815 17.29107729 13.16782511 19.50651236 10.93359375 22.96484375 C5.96837091 26.46021723 1.28530658 25.78702947 -4.625 25.5625 C-5.74712891 25.53994141 -6.86925781 25.51738281 -8.02539062 25.49414062 C-10.78912536 25.43533776 -13.55012554 25.35320401 -16.3125 25.25 C-15.80646008 23.08125748 -15.31266187 21.25032373 -14.3125 19.25 C-4.4125 18.755 -4.4125 18.755 5.6875 18.25 C5.6875 17.59 5.6875 16.93 5.6875 16.25 C4.44613281 16.22421875 3.20476562 16.1984375 1.92578125 16.171875 C0.28381972 16.11557918 -1.358106 16.05823217 -3 16 C-3.81662109 15.98582031 -4.63324219 15.97164062 -5.47460938 15.95703125 C-9.50432 15.79388507 -11.83509548 15.53681042 -15.35546875 13.421875 C-17.3125 11.25 -17.3125 11.25 -17.9375 7.75 C-17.3125 4.25 -17.3125 4.25 -15.54296875 2.046875 C-10.52110522 -0.74642273 -5.63845292 -0.17136151 0 0 Z " fill="#090909" transform="translate(69.3125,82.75)"/>
<path d="M0 0 C1.68319336 0.02707031 1.68319336 0.02707031 3.40039062 0.0546875 C6.16363447 0.10172144 8.92512698 0.16743683 11.6875 0.25 C9.8125 5 9.8125 5 8.6875 7.25 C2.4175 7.25 -3.8525 7.25 -10.3125 7.25 C-10.3125 7.91 -10.3125 8.57 -10.3125 9.25 C-9.14332031 9.21519531 -7.97414062 9.18039063 -6.76953125 9.14453125 C-5.22136859 9.11638284 -3.67319032 9.08908381 -2.125 9.0625 C-1.35607422 9.03736328 -0.58714844 9.01222656 0.20507812 8.98632812 C4.87284511 8.92622812 7.89542877 9.20897977 11.6875 12.25 C13.25180248 15.37860495 13.04377284 17.80602925 12.6875 21.25 C10.44352249 24.07871107 8.61872193 25.13944943 5.02636719 25.56591797 C1.8001586 25.64424388 -1.39939936 25.59803111 -4.625 25.5 C-6.30819336 25.47292969 -6.30819336 25.47292969 -8.02539062 25.4453125 C-10.78863447 25.39827856 -13.55012698 25.33256317 -16.3125 25.25 C-14.4375 20.375 -14.4375 20.375 -13.3125 19.25 C-11.89922053 19.09379445 -10.4789541 18.99943827 -9.05859375 18.93359375 C-8.20458984 18.89169922 -7.35058594 18.84980469 -6.47070312 18.80664062 C-5.12395508 18.74766602 -5.12395508 18.74766602 -3.75 18.6875 C-2.39745117 18.62272461 -2.39745117 18.62272461 -1.01757812 18.55664062 C1.21728485 18.45021858 3.45226308 18.34820012 5.6875 18.25 C5.6875 17.59 5.6875 16.93 5.6875 16.25 C4.51832031 16.21261719 3.34914062 16.17523438 2.14453125 16.13671875 C0.59632325 16.0710372 -0.95185242 16.00459061 -2.5 15.9375 C-3.65338867 15.90366211 -3.65338867 15.90366211 -4.83007812 15.86914062 C-9.84658232 15.63230996 -13.59377046 14.96872954 -17.3125 11.25 C-18.00583431 5.1255469 -18.00583431 5.1255469 -15.55859375 2.03515625 C-10.52247569 -0.73440567 -5.64148541 -0.17145368 0 0 Z " fill="#080808" transform="translate(139.3125,82.75)"/>
<path d="M0 0 C1.47225429 0.01846914 2.94444098 0.07413811 4.4140625 0.1640625 C5.14367187 0.17050781 5.87328125 0.17695312 6.625 0.18359375 C12.4668608 0.36093595 17.02656897 1.84551829 21.9765625 5.0390625 C23.75523425 7.96863951 23.38948575 10.46004159 23.0390625 13.7890625 C21.6640625 16.2265625 21.6640625 16.2265625 20.0390625 17.7890625 C19.3790625 17.7890625 18.7190625 17.7890625 18.0390625 17.7890625 C20.0190625 20.4290625 21.9990625 23.0690625 24.0390625 25.7890625 C17.42141544 26.23023897 17.42141544 26.23023897 14.0390625 25.7890625 C12.37239583 24.12239583 10.70572917 22.45572917 9.0390625 20.7890625 C5.38016767 20.04894417 1.76613189 19.86086244 -1.9609375 19.7890625 C-1.9609375 21.7690625 -1.9609375 23.7490625 -1.9609375 25.7890625 C-4.2709375 25.7890625 -6.5809375 25.7890625 -8.9609375 25.7890625 C-8.9609375 21.8290625 -8.9609375 17.8690625 -8.9609375 13.7890625 C-1.3709375 13.4590625 6.2190625 13.1290625 14.0390625 12.7890625 C14.3690625 11.4690625 14.6990625 10.1490625 15.0390625 8.7890625 C7.1190625 8.4590625 -0.8009375 8.1290625 -8.9609375 7.7890625 C-3.9609375 0.7890625 -3.9609375 0.7890625 0 0 Z " fill="#0C0C0C" transform="translate(93.9609375,82.2109375)"/>
<path d="M0 0 C3.50177822 -0.62284593 6.52466678 -0.85184859 10 0 C12.02320662 2.28455625 13.21316975 4.61319598 14.58984375 7.33203125 C18.55864895 14.84087875 25.64314295 19.17963854 33 23 C34.09054688 23.56847656 34.09054688 23.56847656 35.203125 24.1484375 C45.0356815 27.14214884 59.72690189 26.29506836 69 22 C75.53139153 18.29919689 80.41670838 13.91003393 85 8 C85 12.24209745 83.16686494 13.75028755 80.37890625 16.80859375 C68.95475104 27.33232293 55.72118149 32.0610243 40.453125 31.453125 C28.87559071 30.5716874 17.73110121 24.54490133 10 16 C9.50628906 15.46375 9.01257813 14.9275 8.50390625 14.375 C0 4.87437656 0 4.87437656 0 0 Z " fill="#131313" transform="translate(57,113)"/>
<path d="M0 0 C2.30007727 1.91229565 3.31192568 3.20426684 4.36328125 5.96484375 C3.79480469 5.578125 3.22632813 5.19140625 2.640625 4.79296875 C0.22669508 3.16487578 -2.20037441 1.55918749 -4.63671875 -0.03515625 C-5.26707031 -0.44894531 -5.89742188 -0.86273438 -6.546875 -1.2890625 C-15.37014311 -6.73577242 -28.54194571 -6.17889901 -38.63671875 -5.03515625 C-43.18158778 -3.67558005 -46.74838059 -1.72110061 -50.63671875 0.96484375 C-51.45398438 1.47144531 -52.27125 1.97804688 -53.11328125 2.5 C-58.03102661 5.84702736 -60.3912053 9.09247294 -63.07421875 14.40234375 C-64.73046875 17.5390625 -64.73046875 17.5390625 -66.63671875 19.96484375 C-70.16324352 20.98649872 -73.07609166 20.73858163 -76.63671875 19.96484375 C-73.48090072 8.9030441 -65.52790886 0.49270707 -55.63671875 -5.03515625 C-35.79413311 -15.2635685 -18.20620559 -12.17766069 0 0 Z " fill="#101010" transform="translate(133.63671875,59.03515625)"/>
<path d="M0 0 C1.0725 0.7425 2.145 1.485 3.25 2.25 C7.02330496 6.02330496 9.4492181 10.34165718 12 15 C8.87784725 15.48974945 6.10210133 15.68467432 3 15 C1.39026249 13.1873544 0.4692819 11.31545737 -0.640625 9.1640625 C-3.13470228 5.19360614 -6.99105271 3.24713795 -11 1 C-11.64324219 0.58492187 -12.28648438 0.16984375 -12.94921875 -0.2578125 C-21.07876728 -4.82569242 -32.25636985 -4.27159971 -41.140625 -2.3046875 C-46.7167536 -0.26922952 -50.73715015 2.92249145 -55 7 C-55.66 6.67 -56.32 6.34 -57 6 C-55.60886005 4.72403068 -54.21185587 3.45445352 -52.8125 2.1875 C-52.03519531 1.47980469 -51.25789063 0.77210937 -50.45703125 0.04296875 C-36.12432131 -11.87437195 -14.63934355 -10.4679177 0 0 Z " fill="#121212" transform="translate(132,64)"/>
<path d="M0 0 C2.97 0 5.94 0 9 0 C3.74221691 9.76189079 -2.82513525 16.70682673 -13.25 20.9375 C-24.00331078 23.98427139 -36.85705094 24.77117987 -47.00390625 19.4140625 C-54.46424612 14.80363082 -54.46424612 14.80363082 -57 11 C-55.00100837 11.99281767 -53.00989505 12.9947869 -51.03515625 14.03515625 C-50.38417969 14.37417969 -49.73320313 14.71320313 -49.0625 15.0625 C-48.41410156 15.40410156 -47.76570313 15.74570313 -47.09765625 16.09765625 C-39.10095374 19.53757856 -27.25971792 19.74876325 -19.0546875 16.75390625 C-11.10005186 13.03429801 -4.02142104 8.04284209 0 0 Z " fill="#131313" transform="translate(135,113)"/>
<path d="M0 0 C2.40072955 2.88087546 4.47291037 5.56404834 6 9 C6.66 9 7.32 9 8 9 C8.44214844 9.75925781 8.88429688 10.51851562 9.33984375 11.30078125 C12.45494109 16.36556305 17.97050135 19.01201821 23.52734375 20.82421875 C34.75893669 23.32604277 47.3022186 23.04313269 57.375 17.125 C58.9294895 16.10256763 60.47313912 15.0632504 62 14 C62.9075 13.401875 63.815 12.80375 64.75 12.1875 C68.13591858 8.89563471 70.51531259 4.99599213 73 1 C73.99 1.66 74.98 2.32 76 3 C74.58336018 7.50749034 72.46808102 9.83349125 69 13 C68.38640625 13.57105469 67.7728125 14.14210938 67.140625 14.73046875 C55.88452982 24.96129945 44.77179908 26.80628182 29.89453125 26.43359375 C17.5345745 25.67454533 8.61483413 17.28326677 0.703125 8.4296875 C-1 6 -1 6 -0.75 2.6875 C-0.5025 1.800625 -0.255 0.91375 0 0 Z " fill="#E5E5E5" transform="translate(70,113)"/>
<path d="M0 0 C0 0.66 0 1.32 0 2 C-0.78761719 2.01417969 -1.57523438 2.02835938 -2.38671875 2.04296875 C-14.72982808 2.58343626 -26.15671001 5.99592292 -35 15 C-36.71722592 17.26447374 -38.25296738 19.54589867 -39.7109375 21.984375 C-40.96630101 23.94730703 -42.29422804 25.42390661 -44 27 C-44.78411387 24.24838568 -45.21594873 22.58295519 -44.20703125 19.859375 C-39.65176865 12.96906182 -33.87307213 8.49220401 -27 4 C-26.29230469 3.52046875 -25.58460937 3.0409375 -24.85546875 2.546875 C-17.43372078 -1.61047495 -8.2187512 -0.3191748 0 0 Z " fill="#E9E9E9" transform="translate(113,53)"/>
<path d="M0 0 C2.40072955 2.88087546 4.47291037 5.56404834 6 9 C6.66 9 7.32 9 8 9 C8.44214844 9.75925781 8.88429688 10.51851562 9.33984375 11.30078125 C12.43579252 16.33442972 17.87290977 18.90396007 23.3515625 20.82421875 C30.76194296 22.57148237 38.43853135 22.18147525 46 22 C42.71508627 24.18994248 41.16904361 24.35277339 37.3125 24.625 C36.31863281 24.69976562 35.32476562 24.77453125 34.30078125 24.8515625 C33.54152344 24.90054688 32.78226563 24.94953125 32 25 C32 25.33 32 25.66 32 26 C24.6784048 26.99839935 19.11350722 23.8063768 13 20 C7.75307203 15.90868818 2.83430013 11.47003367 -1 6 C-0.75 2.6875 -0.75 2.6875 0 0 Z " fill="#DEDEDE" transform="translate(70,113)"/>
<path d="M0 0 C7.92 0.33 15.84 0.66 24 1 C23.67 1.66 23.34 2.32 23 3 C15.41 3 7.82 3 0 3 C0 2.01 0 1.02 0 0 Z " fill="#C2C2C2" transform="translate(121,107)"/>
<path d="M0 0 C7.92 0.33 15.84 0.66 24 1 C23.67 1.66 23.34 2.32 23 3 C15.41 3 7.82 3 0 3 C0 2.01 0 1.02 0 0 Z " fill="#C2C2C2" transform="translate(51,107)"/>
<path d="M0 0 C2.31 0.33 4.62 0.66 7 1 C7.33 2.32 7.66 3.64 8 5 C7.35675781 4.9278125 6.71351562 4.855625 6.05078125 4.78125 C-1.31967507 4.02422738 -8.59465929 3.89404123 -16 4 C-12.36804504 1.57869669 -10.61650652 1.78977215 -6.3125 1.875 C-5.13300781 1.89304688 -3.95351562 1.91109375 -2.73828125 1.9296875 C-1.38283203 1.96449219 -1.38283203 1.96449219 0 2 C0 1.34 0 0.68 0 0 Z " fill="#C5C5C5" transform="translate(113,53)"/>
<path d="M0 0 C1.05960938 0.00676758 1.05960938 0.00676758 2.140625 0.01367188 C3.88545275 0.02546125 5.630237 0.04339676 7.375 0.0625 C7.375 0.7225 7.375 1.3825 7.375 2.0625 C6.51777344 2.12308594 5.66054687 2.18367188 4.77734375 2.24609375 C-1.06104873 2.67393536 -6.84557272 3.121663 -12.625 4.0625 C-8.61625596 -0.12845967 -5.62708668 -0.06748351 0 0 Z " fill="#FEFEFE" transform="translate(105.625,52.9375)"/>
<path d="M0 0 C-0.639375 0.45375 -1.27875 0.9075 -1.9375 1.375 C-4.09702406 2.83921726 -4.09702406 2.83921726 -5 5 C-6.84765625 5.8515625 -6.84765625 5.8515625 -9.0625 6.625 C-9.79597656 6.88539062 -10.52945313 7.14578125 -11.28515625 7.4140625 C-11.85105469 7.60742188 -12.41695313 7.80078125 -13 8 C-13 7.34 -13 6.68 -13 6 C-13.66 5.67 -14.32 5.34 -15 5 C-13.06891037 3.96709159 -11.129882 2.94901328 -9.1875 1.9375 C-8.10855469 1.36902344 -7.02960938 0.80054688 -5.91796875 0.21484375 C-3 -1 -3 -1 0 0 Z " fill="#E2E2E2" transform="translate(98,54)"/>
<path d="M0 0 C6.27 0 12.54 0 19 0 C15.71508627 2.18994248 14.16904361 2.35277339 10.3125 2.625 C9.31863281 2.69976562 8.32476562 2.77453125 7.30078125 2.8515625 C6.16189453 2.92503906 6.16189453 2.92503906 5 3 C5 3.33 5 3.66 5 4 C-1.625 4.25 -1.625 4.25 -5 2 C-3.68 2 -2.36 2 -1 2 C-0.67 1.34 -0.34 0.68 0 0 Z " fill="#A6A6A6" transform="translate(97,135)"/>
<path d="M0 0 C0 0.66 0 1.32 0 2 C-2.84838121 3.4241906 -5.32787908 3.16995508 -8.5 3.1875 C-9.6653125 3.20167969 -10.830625 3.21585938 -12.03125 3.23046875 C-15 3 -15 3 -17 1 C-14.9168207 0.83141902 -12.83344956 0.66520745 -10.75 0.5 C-9.58984375 0.4071875 -8.4296875 0.314375 -7.234375 0.21875 C-4.82731342 0.05595356 -2.41256049 0 0 0 Z " fill="#FBFBFB" transform="translate(117,136)"/>
<path d="M0 0 C0.55300781 0.27972656 1.10601562 0.55945313 1.67578125 0.84765625 C3.28806753 1.64702508 4.91145992 2.42422789 6.54296875 3.18359375 C7.85201172 3.80427734 7.85201172 3.80427734 9.1875 4.4375 C10.50814453 5.05431641 10.50814453 5.05431641 11.85546875 5.68359375 C14 7 14 7 15 10 C11.43574301 8.68552225 8.40275366 7.11594205 5.25 5 C4.47140625 4.484375 3.6928125 3.96875 2.890625 3.4375 C1 2 1 2 0 0 Z " fill="#393939" transform="translate(78,124)"/>
<path d="M0 0 C0.99 0.33 1.98 0.66 3 1 C0.69733517 2.77128064 -1.62782434 4.41000773 -4.0625 6 C-6.35468555 7.56063697 -8.1618589 8.957621 -10 11 C-10.66 10.67 -11.32 10.34 -12 10 C-10.56458334 8.70601853 -9.12658648 7.41489889 -7.6875 6.125 C-6.88699219 5.40570313 -6.08648437 4.68640625 -5.26171875 3.9453125 C-3 2 -3 2 0 0 Z " fill="#484848" transform="translate(87,60)"/>
<path d="M0 0 C-1.8125 2 -1.8125 2 -4 4 C-4.99 4 -5.98 4 -7 4 C-7.33 3.01 -7.66 2.02 -8 1 C-2.25 -1.125 -2.25 -1.125 0 0 Z " fill="#E2E2E2" transform="translate(124,134)"/>
<path d="M0 0 C0 0.66 0 1.32 0 2 C-3.3 2 -6.6 2 -10 2 C-10.33 1.34 -10.66 0.68 -11 0 C-9.54263913 -0.19491452 -8.08405407 -0.38069358 -6.625 -0.5625 C-5.81289062 -0.66691406 -5.00078125 -0.77132812 -4.1640625 -0.87890625 C-2 -1 -2 -1 0 0 Z " fill="#C0C0C0" transform="translate(120,108)"/>
<path d="M0 0 C0.99 0.66 1.98 1.32 3 2 C2.34 3.65 1.68 5.3 1 7 C0.67 6.01 0.34 5.02 0 4 C-0.99 4.66 -1.98 5.32 -3 6 C-1.125 1.125 -1.125 1.125 0 0 Z " fill="#C4C4C4" transform="translate(143,114)"/>
<path d="M0 0 C0 3.99904969 -1.72586967 5.80200422 -4 9 C-6 6 -6 6 -6 4 C-4.36368108 2.95107762 -2.69514137 1.95093297 -1 1 C-0.67 0.67 -0.34 0.34 0 0 Z " fill="#C8C8C8" transform="translate(74,71)"/>
<path d="M0 0 C-0.66 0 -1.32 0 -2 0 C-2 0.66 -2 1.32 -2 2 C-4.31 2.33 -6.62 2.66 -9 3 C-5.83583464 -0.30799106 -4.50236011 -1.35070803 0 0 Z " fill="#EFEFEF" transform="translate(102,54)"/>
<path d="M0 0 C0 0.66 0 1.32 0 2 C0.66 2.33 1.32 2.66 2 3 C-4.625 3.25 -4.625 3.25 -8 1 C-5.23735711 0.40267181 -2.83967231 0 0 0 Z " fill="#BDBDBD" transform="translate(100,136)"/>
<path d="M0 0 C-0.639375 0.45375 -1.27875 0.9075 -1.9375 1.375 C-4.09702406 2.83921726 -4.09702406 2.83921726 -5 5 C-5.66 5 -6.32 5 -7 5 C-7.33 3.68 -7.66 2.36 -8 1 C-3.375 -1.125 -3.375 -1.125 0 0 Z " fill="#A7A7A7" transform="translate(98,54)"/>
</svg>
